<svg width="24" height="24" viewBox="0 0 24 24" fill="none" xmlns="http://www.w3.org/2000/svg">
<path fill-rule="evenodd" clip-rule="evenodd" d="M11.7887 15.2372L11.293 13.75H8.70744L8.21172 15.2372C8.08073 15.6301 7.65599 15.8425 7.26303 15.7115C6.87008 15.5805 6.65771 15.1558 6.78869 14.7628L8.63058 9.23717C8.82709 8.64764 9.37879 8.25 10.0002 8.25C10.6216 8.25 11.1733 8.64764 11.3698 9.23717L13.2117 14.7628C13.3427 15.1558 13.1303 15.5805 12.7374 15.7115C12.3444 15.8425 11.9197 15.6301 11.7887 15.2372ZM9.20744 12.25L10.0002 9.87171L10.793 12.25H9.20744Z" fill="white"/>
<path d="M15.5 8.25C15.9142 8.25 16.25 8.58579 16.25 9V15C16.25 15.4142 15.9142 15.75 15.5 15.75C15.0858 15.75 14.75 15.4142 14.75 15V9C14.75 8.58579 15.0858 8.25 15.5 8.25Z" fill="white"/>
<path fill-rule="evenodd" clip-rule="evenodd" d="M8.75 2C8.75 1.58579 8.41421 1.25 8 1.25C7.58579 1.25 7.25 1.58579 7.25 2V3.4418C6.19683 3.61312 5.33327 3.94921 4.64124 4.64124C3.94921 5.33327 3.61312 6.19683 3.4418 7.25H2C1.58579 7.25 1.25 7.58579 1.25 8C1.25 8.41421 1.58579 8.75 2 8.75H3.29576C3.25883 9.4815 3.2517 10.3114 3.25032 11.25H2C1.58579 11.25 1.25 11.5858 1.25 12C1.25 12.4142 1.58579 12.75 2 12.75H3.25032C3.2517 13.6886 3.25883 14.5185 3.29576 15.25H2C1.58579 15.25 1.25 15.5858 1.25 16C1.25 16.4142 1.58579 16.75 2 16.75H3.4418C3.61312 17.8032 3.94921 18.6667 4.64124 19.3588C5.33327 20.0508 6.19683 20.3869 7.25 20.5582V22C7.25 22.4142 7.58579 22.75 8 22.75C8.41421 22.75 8.75 22.4142 8.75 22V20.7042C9.4815 20.7412 10.3114 20.7483 11.25 20.7497V22C11.25 22.4142 11.5858 22.75 12 22.75C12.4142 22.75 12.75 22.4142 12.75 22V20.7497C13.6886 20.7483 14.5185 20.7412 15.25 20.7042V22C15.25 22.4142 15.5858 22.75 16 22.75C16.4142 22.75 16.75 22.4142 16.75 22V20.5582C17.8032 20.3869 18.6667 20.0508 19.3588 19.3588C20.0508 18.6667 20.3869 17.8032 20.5582 16.75H22C22.4142 16.75 22.75 16.4142 22.75 16C22.75 15.5858 22.4142 15.25 22 15.25H20.7042C20.7412 14.5185 20.7483 13.6886 20.7497 12.75H22C22.4142 12.75 22.75 12.4142 22.75 12C22.75 11.5858 22.4142 11.25 22 11.25H20.7497C20.7483 10.3114 20.7412 9.4815 20.7042 8.75H22C22.4142 8.75 22.75 8.41421 22.75 8C22.75 7.58579 22.4142 7.25 22 7.25H20.5582C20.3869 6.19683 20.0508 5.33327 19.3588 4.64124C18.6667 3.94921 17.8032 3.61312 16.75 3.4418V2C16.75 1.58579 16.4142 1.25 16 1.25C15.5858 1.25 15.25 1.58579 15.25 2V3.29576C14.5185 3.25883 13.6886 3.2517 12.75 3.25032V2C12.75 1.58579 12.4142 1.25 12 1.25C11.5858 1.25 11.25 1.58579 11.25 2V3.25032C10.3114 3.2517 9.4815 3.25883 8.75 3.29576V2ZM5.7019 5.7019C6.12511 5.27869 6.70476 5.02502 7.71085 4.88976C8.73851 4.75159 10.0932 4.75 12 4.75C13.9068 4.75 15.2615 4.75159 16.2892 4.88976C17.2952 5.02502 17.8749 5.27869 18.2981 5.7019C18.7213 6.12511 18.975 6.70476 19.1102 7.71085C19.2484 8.73851 19.25 10.0932 19.25 12C19.25 13.9068 19.2484 15.2615 19.1102 16.2892C18.975 17.2952 18.7213 17.8749 18.2981 18.2981C17.8749 18.7213 17.2952 18.975 16.2892 19.1102C15.2615 19.2484 13.9068 19.25 12 19.25C10.0932 19.25 8.73851 19.2484 7.71085 19.1102C6.70476 18.975 6.12511 18.7213 5.7019 18.2981C5.27869 17.8749 5.02502 17.2952 4.88976 16.2892C4.75159 15.2615 4.75 13.9068 4.75 12C4.75 10.0932 4.75159 8.73851 4.88976 7.71085C5.02502 6.70476 5.27869 6.12511 5.7019 5.7019Z" fill="white"/>
</svg>
