<svg width="20" height="20" viewBox="0 0 20 20" fill="none" xmlns="http://www.w3.org/2000/svg">
<path d="M1.25001 9.99183C1.24943 10.2145 1.30837 10.4334 1.42072 10.6257C1.53308 10.8179 1.69477 10.9767 1.88907 11.0856L15.0078 18.5864C15.1961 18.6931 15.4086 18.7496 15.625 18.7504C15.8244 18.7493 16.0206 18.7006 16.1973 18.6082C16.374 18.5159 16.5261 18.3826 16.6408 18.2195C16.7555 18.0564 16.8295 17.8682 16.8566 17.6707C16.8838 17.4732 16.8633 17.272 16.7969 17.084L14.6875 10.8379C14.6669 10.7769 14.6279 10.7237 14.5759 10.6856C14.5238 10.6476 14.4613 10.6265 14.3969 10.6254H8.75C8.66432 10.6256 8.57952 10.6082 8.50086 10.5742C8.4222 10.5402 8.35137 10.4905 8.29275 10.428C8.23414 10.3655 8.189 10.2916 8.16015 10.2109C8.13129 10.1303 8.11933 10.0445 8.125 9.95901C8.13918 9.7983 8.21354 9.64887 8.3332 9.54065C8.45286 9.43244 8.60899 9.37342 8.77032 9.37542H14.3953C14.4607 9.37543 14.5244 9.35493 14.5775 9.3168C14.6307 9.27868 14.6705 9.22486 14.6914 9.16292L16.8008 2.91761C16.8847 2.67823 16.8939 2.41897 16.827 2.17427C16.7601 1.92957 16.6203 1.71102 16.4263 1.54765C16.2322 1.38428 15.993 1.28381 15.7405 1.25961C15.488 1.23541 15.2341 1.28861 15.0125 1.41214L1.88751 8.90355C1.69431 9.01214 1.53346 9.17016 1.42143 9.36139C1.30941 9.55262 1.25025 9.7702 1.25001 9.99183Z" fill="white"/>
</svg>
