<svg width="28" height="28" viewBox="0 0 28 28" fill="none" xmlns="http://www.w3.org/2000/svg">
<g clip-path="url(#clip0_187_31647)">
<rect width="27.7422" height="27.7422" rx="13.8711" fill="#F8F8F8"/>
<rect width="27.7422" height="27.7422" rx="13.8711" fill="#00A79D"/>
<g filter="url(#filter0_f_187_31647)">
<path d="M2.79297 10.1295C2.79297 10.1295 3.84033 6.59796 6.80789 4.54356C9.60088 2.61002 12.9176 2.79795 12.9176 2.79795" stroke="#F8F8F8" stroke-opacity="0.5" stroke-width="1.39649"/>
</g>
<g filter="url(#filter1_f_187_31647)">
<path d="M23.5654 12.5681C23.5654 12.5681 23.3573 15.2242 22.6926 16.7575C21.7847 18.8523 20.4233 20.0742 20.4233 20.0742" stroke="#F8F8F8" stroke-opacity="0.5" stroke-width="1.39649"/>
</g>
<path d="M18.9114 10.7987C18.8539 10.7987 18.805 10.7871 18.7647 10.7641C18.7245 10.7411 18.6928 10.7008 18.6698 10.6433L18.1692 9.46959L16.9092 8.91725C16.8517 8.89423 16.8114 8.86259 16.7884 8.82231C16.7654 8.78204 16.7539 8.73313 16.7539 8.6756C16.7539 8.61806 16.7654 8.56916 16.7884 8.52888C16.8114 8.48861 16.8517 8.45696 16.9092 8.43395L18.1692 7.89887L18.6698 6.77693C18.6928 6.71939 18.7245 6.67912 18.7647 6.6561C18.805 6.63309 18.8539 6.62158 18.9114 6.62158C18.969 6.62158 19.0179 6.63309 19.0582 6.6561C19.0984 6.67912 19.1301 6.71939 19.1531 6.77693L19.6537 7.89887L20.9137 8.43395C20.9712 8.45696 21.0115 8.48861 21.0345 8.52888C21.0575 8.56916 21.069 8.61806 21.069 8.6756C21.069 8.73313 21.0575 8.78204 21.0345 8.82231C21.0115 8.86259 20.9712 8.89423 20.9137 8.91725L19.6537 9.46959L19.1531 10.6433C19.1301 10.7008 19.0984 10.7411 19.0582 10.7641C19.0179 10.7871 18.969 10.7987 18.9114 10.7987ZM18.9114 21.086C18.8654 21.086 18.8194 21.0745 18.7734 21.0515C18.7273 21.0285 18.6928 20.9882 18.6698 20.9306L18.1692 19.8087L16.9265 19.2736C16.8689 19.2506 16.8287 19.219 16.8056 19.1787C16.7826 19.1384 16.7711 19.0895 16.7711 19.032C16.7711 18.9744 16.7826 18.9255 16.8056 18.8853C16.8287 18.845 16.8689 18.8133 16.9265 18.7903L18.1692 18.2552L18.6698 17.0643C18.6928 17.0067 18.7245 16.9665 18.7647 16.9434C18.805 16.9204 18.8539 16.9089 18.9114 16.9089C18.969 16.9089 19.0179 16.9204 19.0582 16.9434C19.0984 16.9665 19.1301 17.0067 19.1531 17.0643L19.6537 18.2552L20.8964 18.7903C20.954 18.8133 20.9942 18.845 21.0172 18.8853C21.0403 18.9255 21.0518 18.9744 21.0518 19.032C21.0518 19.0895 21.0403 19.1384 21.0172 19.1787C20.9942 19.219 20.954 19.2506 20.8964 19.2736L19.6537 19.8087L19.1531 20.9306C19.1301 20.9882 19.0956 21.0285 19.0495 21.0515C19.0035 21.0745 18.9575 21.086 18.9114 21.086ZM11.334 18.0999C11.242 18.0999 11.1528 18.074 11.0665 18.0222C10.9802 17.9704 10.914 17.8985 10.868 17.8065L9.74605 15.4072L7.32956 14.3198C7.23751 14.2738 7.16559 14.2076 7.11381 14.1213C7.06202 14.035 7.03613 13.9458 7.03613 13.8538C7.03613 13.7617 7.06202 13.6725 7.11381 13.5862C7.16559 13.4999 7.23751 13.4338 7.32956 13.3877L9.74605 12.3003L10.868 9.91836C10.914 9.8148 10.9802 9.73712 11.0665 9.68534C11.1528 9.63356 11.242 9.60767 11.334 9.60767C11.4261 9.60767 11.5153 9.63356 11.6016 9.68534C11.6879 9.73712 11.754 9.80904 11.8001 9.9011L12.9393 12.3003L15.3385 13.3877C15.4421 13.4338 15.5197 13.4999 15.5715 13.5862C15.6233 13.6725 15.6492 13.7617 15.6492 13.8538C15.6492 13.9458 15.6233 14.035 15.5715 14.1213C15.5197 14.2076 15.4421 14.2738 15.3385 14.3198L12.9393 15.4072L11.8001 17.8065C11.754 17.91 11.6879 17.9848 11.6016 18.0309C11.5153 18.0769 11.4261 18.0999 11.334 18.0999Z" fill="white"/>
</g>
<defs>
<filter id="filter0_f_187_31647" x="-1.36758" y="-1.39651" width="17.8155" height="15.2168" filterUnits="userSpaceOnUse" color-interpolation-filters="sRGB">
<feFlood flood-opacity="0" result="BackgroundImageFix"/>
<feBlend mode="normal" in="SourceGraphic" in2="BackgroundImageFix" result="shape"/>
<feGaussianBlur stdDeviation="1.74562" result="effect1_foregroundBlur_187_31647"/>
</filter>
<filter id="filter1_f_187_31647" x="16.4646" y="9.02195" width="11.2881" height="15.063" filterUnits="userSpaceOnUse" color-interpolation-filters="sRGB">
<feFlood flood-opacity="0" result="BackgroundImageFix"/>
<feBlend mode="normal" in="SourceGraphic" in2="BackgroundImageFix" result="shape"/>
<feGaussianBlur stdDeviation="1.74562" result="effect1_foregroundBlur_187_31647"/>
</filter>
<clipPath id="clip0_187_31647">
<rect width="27.7422" height="27.7422" rx="13.8711" fill="white"/>
</clipPath>
</defs>
</svg>
