<svg width="24" height="24" viewBox="0 0 24 24" fill="none" xmlns="http://www.w3.org/2000/svg">
<g opacity="0.6">
<path d="M18.75 9V15C18.75 15.1989 18.829 15.3897 18.9697 15.5303C19.1103 15.671 19.3011 15.75 19.5 15.75C19.6989 15.75 19.8897 15.671 20.0303 15.5303C20.171 15.3897 20.25 15.1989 20.25 15V9C20.25 8.80109 20.171 8.61032 20.0303 8.46967C19.8897 8.32902 19.6989 8.25 19.5 8.25C19.3011 8.25 19.1103 8.32902 18.9697 8.46967C18.829 8.61032 18.75 8.80109 18.75 9ZM15.75 2.25C15.9489 2.25 16.1397 2.32902 16.2803 2.46967C16.421 2.61032 16.5 2.80109 16.5 3V21C16.5 21.1989 16.421 21.3897 16.2803 21.5303C16.1397 21.671 15.9489 21.75 15.75 21.75C15.5511 21.75 15.3603 21.671 15.2197 21.5303C15.079 21.3897 15 21.1989 15 21V3C15 2.80109 15.079 2.61032 15.2197 2.46967C15.3603 2.32902 15.5511 2.25 15.75 2.25ZM12 5.25C12.1989 5.25 12.3897 5.32902 12.5303 5.46967C12.671 5.61032 12.75 5.80109 12.75 6V18C12.75 18.1989 12.671 18.3897 12.5303 18.5303C12.3897 18.671 12.1989 18.75 12 18.75C11.8011 18.75 11.6103 18.671 11.4697 18.5303C11.329 18.3897 11.25 18.1989 11.25 18V6C11.25 5.80109 11.329 5.61032 11.4697 5.46967C11.6103 5.32902 11.8011 5.25 12 5.25ZM8.25 8.25C8.44891 8.25 8.63968 8.32902 8.78033 8.46967C8.92098 8.61032 9 8.80109 9 9V15C9 15.1989 8.92098 15.3897 8.78033 15.5303C8.63968 15.671 8.44891 15.75 8.25 15.75C8.05109 15.75 7.86032 15.671 7.71967 15.5303C7.57902 15.3897 7.5 15.1989 7.5 15V9C7.5 8.80109 7.57902 8.61032 7.71967 8.46967C7.86032 8.32902 8.05109 8.25 8.25 8.25ZM4.5 6.75C4.69891 6.75 4.88968 6.82902 5.03033 6.96967C5.17098 7.11032 5.25 7.30109 5.25 7.5V16.5C5.25 16.6989 5.17098 16.8897 5.03033 17.0303C4.88968 17.171 4.69891 17.25 4.5 17.25C4.30109 17.25 4.11032 17.171 3.96967 17.0303C3.82902 16.8897 3.75 16.6989 3.75 16.5V7.5C3.75 7.30109 3.82902 7.11032 3.96967 6.96967C4.11032 6.82902 4.30109 6.75 4.5 6.75Z" fill="#020202"/>
</g>
</svg>
