<svg xmlns="http://www.w3.org/2000/svg" width="1415" height="398" fill="none"><g clip-path="url(#a)"><rect width="1415" height="548" fill="#131E1D" rx="14" transform="matrix(-1 0 0 1 1415 0)"/><path fill="#183231" d="M1649-483H-271V597h1920z"/><path fill="url(#b)" fill-opacity=".4" d="M0 0h1920v1080H0z" transform="matrix(-1 0 0 1 1649 -483)"/><path fill="url(#c)" fill-opacity=".6" d="M0 0h1920v1080H0z" transform="matrix(-1 0 0 1 1649 -483)"/><g filter="url(#d)"><circle cx="552" cy="552" r="552" fill="#12B3A8" fill-opacity=".4" transform="matrix(-1 0 0 1 741 235)"/></g><path fill="url(#e)" d="M249.142 225.288C131.08 124.961 20.522 118.724-20 128.147V548h873.461c84.044-133.222-110.058-197.023-217.615-212.271-94.55-23.643-239.126 14.969-386.704-110.441"/><path fill="url(#f)" d="M249 332.562c-118-97.6-228.5-103.667-269-94.5v324h909L635.5 440c-94.5-23-239 14.562-386.5-107.438"/></g><defs><radialGradient id="b" cx="0" cy="0" r="1" gradientTransform="matrix(0 404.5 -632.469 0 960 957)" gradientUnits="userSpaceOnUse"><stop stop-color="#17564A"/><stop offset="1" stop-color="#1C5247" stop-opacity="0"/></radialGradient><radialGradient id="c" cx="0" cy="0" r="1" gradientTransform="matrix(0 -621.5 863.995 0 960 -214.5)" gradientUnits="userSpaceOnUse"><stop offset=".09" stop-color="#267E6F"/><stop offset="1" stop-color="#267E6F" stop-opacity="0"/></radialGradient><linearGradient id="e" x1="394.72" x2="271.626" y1="200.554" y2="490.139" gradientUnits="userSpaceOnUse"><stop stop-color="#1A2927"/><stop offset="1" stop-color="#1A2927" stop-opacity="0"/></linearGradient><linearGradient id="f" x1="394.5" x2="277" y1="308.5" y2="592.5" gradientUnits="userSpaceOnUse"><stop stop-color="#1A2927"/><stop offset="1" stop-color="#1A2927" stop-opacity="0"/></linearGradient><clipPath id="a"><rect width="1415" height="398" fill="#fff" rx="14" transform="matrix(-1 0 0 1 1415 0)"/></clipPath><filter id="d" width="1904" height="1904" x="-763" y="-165" color-interpolation-filters="sRGB" filterUnits="userSpaceOnUse"><feFlood flood-opacity="0" result="BackgroundImageFix"/><feBlend in="SourceGraphic" in2="BackgroundImageFix" result="shape"/><feGaussianBlur result="effect1_foregroundBlur_362_29992" stdDeviation="200"/></filter></defs></svg>