<svg width="21" height="21" viewBox="0 0 21 21" fill="none" xmlns="http://www.w3.org/2000/svg">
<g clip-path="url(#clip0_2031_5498)">
<path d="M20.7463 19.5037L15.5313 14.2887C16.7563 12.7837 17.5 10.85 17.5 8.75C17.5 3.92875 13.5713 0 8.75 0C3.92875 0 0 3.92875 0 8.75C0 13.5712 3.92875 17.5 8.75 17.5C10.85 17.5 12.7838 16.7563 14.2888 15.5312L19.5038 20.7463C19.6788 20.9125 19.8975 21 20.125 21C20.3525 21 20.5713 20.9125 20.7463 20.7463C21.0875 20.405 21.0875 19.845 20.7463 19.5037ZM8.75 15.75C5.18875 15.75 2.24 13.0725 1.8025 9.625H4.375C4.64625 9.625 4.90875 9.49375 5.075 9.275L6.79 6.9825L8.82 11.7163C8.95125 12.0138 9.2225 12.215 9.54625 12.25H9.625C9.91375 12.25 10.1938 12.1012 10.3513 11.8562L11.8475 9.625H13.125C13.6063 9.625 14 9.23125 14 8.75C14 8.26875 13.6063 7.875 13.125 7.875H11.375C11.0863 7.875 10.8063 8.02375 10.6488 8.26875L9.79125 9.54625L7.805 4.90875C7.6825 4.62 7.41125 4.41875 7.105 4.38375C6.79 4.34 6.48375 4.47125 6.3 4.725L3.9375 7.875H1.8025C2.24 4.4275 5.18875 1.75 8.75 1.75C12.6088 1.75 15.75 4.89125 15.75 8.75C15.75 12.6087 12.6088 15.75 8.75 15.75Z" fill="white"/>
</g>
<defs>
<clipPath id="clip0_2031_5498">
<rect width="21" height="21" fill="white"/>
</clipPath>
</defs>
</svg>
