<svg width="25" height="22" viewBox="0 0 25 22" fill="none" xmlns="http://www.w3.org/2000/svg">
<path d="M12.0662 17.6939H21.1158M3.0166 17.6939H4.70037C5.19225 17.6939 5.43819 17.6939 5.66964 17.645C5.87483 17.6017 6.071 17.5302 6.25093 17.4331C6.45387 17.3237 6.62778 17.1707 6.97559 16.8647L19.6076 5.75061C20.4406 5.01771 20.4406 3.82945 19.6076 3.09655C18.7746 2.36365 17.424 2.36365 16.591 3.09655L3.95903 14.2106C3.61122 14.5167 3.43731 14.6697 3.31295 14.8482C3.20268 15.0065 3.12143 15.1791 3.07217 15.3597C3.0166 15.5633 3.0166 15.7797 3.0166 16.2125V17.6939Z" stroke="url(#paint0_linear_543_27171)" stroke-width="1.76937" stroke-linecap="round" stroke-linejoin="round"/>
<defs>
<linearGradient id="paint0_linear_543_27171" x1="12.0656" y1="-1.39747" x2="12.0656" y2="44.5928" gradientUnits="userSpaceOnUse">
<stop stop-color="#077371"/>
<stop offset="1" stop-color="#044241"/>
</linearGradient>
</defs>
</svg>
