<svg width="20" height="20" viewBox="0 0 20 20" fill="none" xmlns="http://www.w3.org/2000/svg">
<path d="M10.8333 3.33333H14.3333C15.7334 3.33333 16.4334 3.33333 16.9682 3.60582C17.4386 3.8455 17.8211 4.22795 18.0608 4.69836C18.3333 5.23314 18.3333 5.9332 18.3333 7.33333V14.3333C18.3333 15.7335 18.3333 16.4335 18.0608 16.9683C17.8211 17.4387 17.4386 17.8212 16.9682 18.0609C16.4334 18.3333 15.7334 18.3333 14.3333 18.3333H7.33325C5.93312 18.3333 5.23305 18.3333 4.69828 18.0609C4.22787 17.8212 3.84542 17.4387 3.60574 16.9683C3.33325 16.4335 3.33325 15.7335 3.33325 14.3333V10.8333M13.3333 13.3333H11.9378C11.5302 13.3333 11.3263 13.3333 11.1345 13.2873C10.9645 13.2465 10.8019 13.1791 10.6528 13.0877C10.4846 12.9847 10.3405 12.8405 10.0522 12.5523L2.08325 4.58334C1.3929 3.89298 1.3929 2.77369 2.08325 2.08333C2.77361 1.39298 3.8929 1.39298 4.58325 2.08333L12.5522 10.0523C12.8405 10.3405 12.9846 10.4847 13.0877 10.6529C13.1791 10.802 13.2464 10.9646 13.2872 11.1346C13.3333 11.3264 13.3333 11.5303 13.3333 11.9379V13.3333Z" stroke="white" stroke-width="2" stroke-linecap="round" stroke-linejoin="round"/>
</svg>
