<svg width="26" height="26" viewBox="0 0 26 26" fill="none" xmlns="http://www.w3.org/2000/svg">
<path d="M2.62074 13.7685C2.47325 13.5349 2.3995 13.4182 2.35822 13.2381C2.32721 13.1028 2.32721 12.8894 2.35822 12.7541C2.3995 12.574 2.47325 12.4573 2.62074 12.2237C3.83956 10.2938 7.4675 5.41504 12.9963 5.41504C18.525 5.41504 22.153 10.2938 23.3718 12.2237C23.5193 12.4573 23.593 12.574 23.6343 12.7541C23.6653 12.8894 23.6653 13.1028 23.6343 13.2381C23.593 13.4182 23.5193 13.5349 23.3718 13.7685C22.153 15.6984 18.525 20.5771 12.9963 20.5771C7.4675 20.5771 3.83956 15.6984 2.62074 13.7685Z" stroke="white" stroke-width="2.16602" stroke-linecap="round" stroke-linejoin="round"/>
<path d="M12.9963 16.2451C14.7906 16.2451 16.2453 14.7905 16.2453 12.9961C16.2453 11.2017 14.7906 9.74707 12.9963 9.74707C11.2019 9.74707 9.74723 11.2017 9.74723 12.9961C9.74723 14.7905 11.2019 16.2451 12.9963 16.2451Z" stroke="white" stroke-width="2.16602" stroke-linecap="round" stroke-linejoin="round"/>
</svg>
