<svg width="44" height="43" viewBox="0 0 44 43" fill="none" xmlns="http://www.w3.org/2000/svg">
<g clip-path="url(#clip0_543_26011)">
<path d="M7.09682 27.7419H5.67739C3.71767 27.7419 2.12903 26.1894 2.12903 24.2742C2.12903 23.1252 3.08225 22.1936 4.25804 22.1936H7.09673L7.09682 27.7419Z" fill="#BD4150"/>
<path d="M34.0646 0H7.80655L7.07556 1.38709V42.3281H40.4517L41.8711 41.6129V7.62906L34.0646 0Z" fill="#ECEAEC"/>
<path d="M7.80643 39.5323V0C7.02259 0 6.38708 0.620981 6.38708 1.38709V41.6129C6.38708 42.379 7.02259 43 7.80643 43H40.4516C41.2354 43 41.8709 42.3789 41.8709 41.6129H9.93544C8.75956 41.6129 7.80643 40.6814 7.80643 39.5323Z" fill="#DAD8DB"/>
<path d="M41.8711 7.50997C41.8711 7.14212 41.7215 6.7893 41.4553 6.52911L35.1898 0.406232C34.9236 0.146133 34.5626 0 34.1862 0H34.0646V6.93551C34.0646 7.31848 34.3823 7.62906 34.7742 7.62906H41.8711V7.50997Z" fill="#DAD8DB"/>
<path d="M26.2581 26.3548H4.2581C4.00923 26.3548 3.77023 26.3131 3.54817 26.2363L2.86462 27.3509V36.1132C2.86462 37.2624 3.81784 38.1939 4.99364 38.1939H26.2581L27.6774 37.4515V27.7419C27.6774 26.9758 27.042 26.3548 26.2581 26.3548Z" fill="#E15F78"/>
<path d="M3.54837 26.2364C2.72337 25.9497 2.12903 25.1788 2.12903 24.2742V36.758C2.12903 37.9071 3.08225 38.8387 4.25804 38.8387H26.258C27.0419 38.8387 27.6774 38.2176 27.6774 37.4516H5.67739C4.50159 37.4516 3.54837 36.52 3.54837 35.3709V26.2364Z" fill="#DB4655"/>
<path d="M22.3826 31.8511H20.9895V30.5365H22.5642C22.9565 30.5365 23.2738 30.2259 23.2738 29.843C23.2738 29.46 22.9564 29.1494 22.5642 29.1494H20.2799C19.8876 29.1494 19.5702 29.46 19.5702 29.843V35.3507C19.5702 35.7337 19.8876 36.0443 20.2799 36.0443C20.6721 36.0443 20.9895 35.7337 20.9895 35.3507V33.2383H22.3826C22.7749 33.2383 23.0923 32.9277 23.0923 32.5447C23.0923 32.1618 22.7748 31.8511 22.3826 31.8511Z" fill="white"/>
<path d="M9.36651 29.1292H7.78569C7.59714 29.1292 7.41633 29.2026 7.28321 29.333C7.15078 29.4631 7.07644 29.6393 7.07644 29.8227H7.07593V35.3711C7.07593 35.7541 7.39338 36.0647 7.7856 36.0647C8.17782 36.0647 8.49527 35.7541 8.49527 35.3711V33.651C8.81367 33.6493 9.16369 33.6478 9.36642 33.6478C10.6582 33.6478 11.7096 32.6342 11.7096 31.3887C11.7097 30.1427 10.6583 29.1292 9.36651 29.1292ZM9.36651 32.2606C9.1655 32.2606 8.819 32.2619 8.50232 32.2636C8.50094 31.9436 8.49751 30.5162 8.49751 30.5162H9.36659C9.86769 30.5162 10.2904 30.9158 10.2904 31.3886C10.2904 31.8613 9.86761 32.2606 9.36651 32.2606Z" fill="white"/>
<path d="M15.3177 29.2112H13.7577C13.5691 29.2112 13.3883 29.2843 13.2552 29.4147C13.1221 29.545 13.0473 29.7218 13.048 29.9061L13.0521 32.5909C13.0521 33.3396 13.0591 35.2916 13.0591 35.2916C13.0598 35.4755 13.1353 35.6519 13.2691 35.7816C13.4014 35.9103 13.5817 35.9828 13.7688 35.9828H13.7716C13.7716 35.9828 14.9283 35.9784 15.3759 35.9709C17.0427 35.9421 18.2528 34.5232 18.2528 32.597C18.2527 30.5718 17.0731 29.2112 15.3177 29.2112ZM15.3509 34.5837C15.1479 34.5871 14.7965 34.5902 14.4763 34.5919C14.4743 33.957 14.4715 33.0487 14.4715 32.5908L14.4688 30.5982H15.3178C16.7607 30.5982 16.8334 32.263 16.8334 32.5968C16.8334 33.5732 16.3752 34.5662 15.3509 34.5837Z" fill="white"/>
<path d="M17.01 23.4621C16.4625 23.4621 15.9677 23.1837 15.6198 22.6585C15.1028 21.879 15.2387 20.9961 15.992 20.2361C16.7516 19.4694 18.3061 18.7481 20.1767 18.1592C20.7602 17.0844 21.3542 15.8263 21.9093 14.4354C22.2371 13.6135 22.5018 12.8725 22.7139 12.2098C21.779 10.5348 21.2231 8.97542 21.3708 7.96282C21.5212 6.93536 22.3064 6.35696 23.4735 6.41995C23.82 6.43825 24.6468 6.61504 24.8464 7.85919C24.9989 8.81048 24.7424 10.3482 24.2282 12.0957C25.2013 13.6999 26.5354 15.4181 27.8403 16.7368C29.8128 16.6193 31.4843 16.7598 32.325 17.2556C32.9833 17.6437 33.2418 18.2766 33.0166 18.9481C32.6479 20.0457 31.7574 20.5486 30.6318 20.2922C29.6845 20.0761 28.5105 19.2678 27.3198 18.1456C25.4049 18.3102 23.1511 18.6912 21.1739 19.2594C19.9936 21.3295 18.7177 22.9412 17.6463 23.3415C17.4301 23.4225 17.2166 23.4621 17.01 23.4621ZM16.8105 21.9047C16.929 22.0829 16.9941 22.0792 17.0247 22.0757C17.4765 22.0307 18.2292 21.2684 19.0885 19.9798C18.5202 20.2179 18.0109 20.4759 17.5826 20.753C16.5083 21.4482 16.7363 21.7916 16.8105 21.9047ZM29.313 18.054C29.9194 18.5172 30.4829 18.8338 30.9542 18.9416C31.3222 19.0252 31.5114 18.9826 31.668 18.5162C31.4587 18.206 30.5681 18.057 29.313 18.054ZM23.6765 13.7775C23.2142 15.0637 22.6487 16.3955 22.0312 17.6438C23.3612 17.3173 24.7632 17.0603 26.1021 16.8971C25.2365 15.9384 24.4 14.8616 23.6765 13.7775ZM23.3348 7.77873C22.8309 7.77873 22.8046 7.96333 22.7755 8.15834C22.7013 8.67073 22.8857 9.39946 23.2495 10.2396C23.5704 8.74245 23.5053 7.95039 23.3493 7.77873C23.3445 7.77873 23.3397 7.77873 23.3348 7.77873Z" fill="#E15F78"/>
</g>
<defs>
<clipPath id="clip0_543_26011">
<rect width="44" height="43" fill="white"/>
</clipPath>
</defs>
</svg>
