<svg width="15" height="15" viewBox="0 0 15 15" fill="none" xmlns="http://www.w3.org/2000/svg">
  <path d="M12.32 5.86619H1.76001M12.32 7.33285V5.16219C12.32 4.17649 12.32 3.68365 12.1282 3.30716C11.9594 2.976 11.6902 2.70675 11.359 2.53801C10.9825 2.34618 10.4897 2.34618 9.50401 2.34618H4.57601C3.59032 2.34618 3.09747 2.34618 2.72099 2.53801C2.38982 2.70675 2.12058 2.976 1.95184 3.30716C1.76001 3.68365 1.76001 4.17649 1.76001 5.16218V10.0902C1.76001 11.0759 1.76001 11.5687 1.95184 11.9452C2.12058 12.2764 2.38982 12.5456 2.72099 12.7144C3.09747 12.9062 3.59032 12.9062 4.57601 12.9062H7.04001M9.38668 1.17285V3.51952M4.69334 1.17285V3.51952" stroke="#5B5B5B" stroke-width="0.7" stroke-linecap="round" stroke-linejoin="round"/>
  <path d="M10 9.08691V13.0869M7.94043 11.0869H12" stroke="#5B5B5B" stroke-width="0.579939" stroke-linecap="round" stroke-linejoin="round"/>
</svg>
