<svg width="11" height="11" viewBox="0 0 11 11" fill="none" xmlns="http://www.w3.org/2000/svg">
<g clip-path="url(#clip0_250_409)">
<path d="M10.8955 4.79521L6.99967 1.01396C6.90067 0.917713 6.75263 0.890672 6.62658 0.943838C6.49963 0.997922 6.41667 1.12259 6.41667 1.26055V3.20938C2.86779 3.2708 0 6.17663 0 9.73971C0 9.89646 0.110458 10.0248 0.262167 10.0642C0.289208 10.0711 0.31625 10.0743 0.343292 10.0743C0.468875 10.0743 0.59125 10.0023 0.654042 9.88913C1.683 8.03013 3.64192 6.87513 5.76675 6.87513H6.41667V8.82305C6.41667 8.96101 6.49963 9.08567 6.62658 9.13976C6.75217 9.19292 6.90113 9.16588 6.99967 9.06963L10.8955 5.28838C10.9624 5.22376 11 5.13484 11 5.0418C11 4.94876 10.9624 4.85984 10.8955 4.79521Z" fill="white"/>
</g>
<defs>
<clipPath id="clip0_250_409">
<rect width="11" height="11" fill="white"/>
</clipPath>
</defs>
</svg>
