<svg width="12" height="12" viewBox="0 0 12 12" fill="none" xmlns="http://www.w3.org/2000/svg">
<g clip-path="url(#clip0_338_1328)">
<path fill-rule="evenodd" clip-rule="evenodd" d="M6.23639 0.46555C5.97941 0.457759 5.76476 0.659771 5.75697 0.916756C5.74918 1.17374 5.95119 1.38839 6.20818 1.39618C7.23464 1.4273 9.40743 2.16016 9.78017 4.89355C9.81491 5.14829 10.0496 5.32665 10.3043 5.29191C10.5591 5.25717 10.7374 5.0225 10.7027 4.76775C10.2477 1.43136 7.54448 0.505209 6.23639 0.46555ZM6.51128 2.41799C6.25567 2.39025 6.02598 2.57497 5.99824 2.83057C5.9705 3.08617 6.15522 3.31587 6.41082 3.34361C6.86443 3.39284 7.7582 3.76989 7.84059 4.86555C7.85986 5.12194 8.08333 5.31414 8.33971 5.29487C8.59609 5.27559 8.7883 5.05212 8.76902 4.79574C8.63916 3.06877 7.19841 2.49256 6.51128 2.41799ZM1.8003 0.545349C1.02178 0.545349 0.354411 1.20248 0.480154 2.03328C0.680461 3.36034 1.27765 5.83165 3.07067 7.62468C4.93934 9.49334 7.60062 10.2853 9.02769 10.5961C9.88668 10.7827 10.6155 10.1055 10.6155 9.28097V8.25414C10.6155 7.67466 10.2577 7.15538 9.71616 6.94907L8.75659 6.58348C8.51341 6.49083 8.24917 6.46797 7.99368 6.51748L6.64851 6.77815C6.54455 6.7983 6.44561 6.78243 6.36731 6.73976C5.38913 6.20667 4.78165 5.61661 4.39453 4.78644C4.36655 4.72644 4.35541 4.64669 4.37254 4.55483L4.63389 3.15305C4.68059 2.90257 4.65787 2.64409 4.56821 2.4056L4.2091 1.45045C4.00438 0.905936 3.48358 0.545349 2.90186 0.545349H1.8003ZM1.40074 1.89405C1.36934 1.68686 1.52868 1.4764 1.8003 1.4764H2.90186C3.09576 1.4764 3.26936 1.5966 3.3376 1.7781L3.69671 2.73325C3.7266 2.81275 3.73417 2.89891 3.7186 2.9824L3.45725 4.38419C3.40969 4.63929 3.42953 4.92006 3.55071 5.17993C4.04198 6.23343 4.8159 6.95461 5.92177 7.55729C6.20452 7.71139 6.52592 7.75028 6.82564 7.6922L8.17081 7.43153C8.25597 7.41503 8.34405 7.42265 8.42512 7.45353L9.38469 7.81912C9.56519 7.88789 9.68447 8.06098 9.68447 8.25414V9.28097C9.68447 9.5672 9.45125 9.73536 9.22557 9.68635C7.84452 9.38547 5.40291 8.6402 3.72903 6.96632C2.14897 5.38627 1.59152 3.15819 1.40074 1.89405Z" fill="#020617"/>
</g>
<defs>
<clipPath id="clip0_338_1328">
<rect width="11.1727" height="11.1727" fill="white"/>
</clipPath>
</defs>
</svg>
