<svg width="190" height="44" viewBox="0 0 190 44" fill="none" xmlns="http://www.w3.org/2000/svg">
<mask id="path-1-inside-1_2110_5507" fill="white">
<path d="M0 22C0 9.84974 9.84974 0 22 0H168C180.15 0 190 9.84974 190 22C190 34.1503 180.15 44 168 44H22C9.84974 44 0 34.1503 0 22Z"/>
</mask>
<path d="M0 22C0 9.84974 9.84974 0 22 0H168C180.15 0 190 9.84974 190 22C190 34.1503 180.15 44 168 44H22C9.84974 44 0 34.1503 0 22Z" fill="white"/>
<g clip-path="url(#paint0_angular_2110_5507_clip_path)" data-figma-skip-parse="true" mask="url(#path-1-inside-1_2110_5507)"><g transform="matrix(0.095 0 0 0.0505822 95 22)"><foreignObject x="-1021.05" y="-1021.05" width="2042.11" height="2042.11"><div xmlns="http://www.w3.org/1999/xhtml" style="background:conic-gradient(from 90deg,rgba(255, 255, 255, 1) 0deg,rgba(74, 217, 198, 1) 160.962deg,rgba(0, 152, 131, 1) 283.364deg,rgba(255, 255, 255, 1) 360deg);height:100%;width:100%;opacity:1"></div></foreignObject></g></g><path d="M22 0V2H168V0V-2H22V0ZM168 44V42H22V44V46H168V44ZM22 44V42C10.9543 42 2 33.0457 2 22H0H-2C-2 35.2548 8.74517 46 22 46V44ZM190 22H188C188 33.0457 179.046 42 168 42V44V46C181.255 46 192 35.2548 192 22H190ZM168 0V2C179.046 2 188 10.9543 188 22H190H192C192 8.74517 181.255 -2 168 -2V0ZM22 0V-2C8.74517 -2 -2 8.74517 -2 22H0H2C2 10.9543 10.9543 2 22 2V0Z" data-figma-gradient-fill="{&#34;type&#34;:&#34;GRADIENT_ANGULAR&#34;,&#34;stops&#34;:[{&#34;color&#34;:{&#34;r&#34;:0.29260727763175964,&#34;g&#34;:0.85480761528015137,&#34;b&#34;:0.77713531255722046,&#34;a&#34;:1.0},&#34;position&#34;:0.44711539149284363},{&#34;color&#34;:{&#34;r&#34;:0.0,&#34;g&#34;:0.59607845544815063,&#34;b&#34;:0.51372551918029785,&#34;a&#34;:1.0},&#34;position&#34;:0.78712338209152222},{&#34;color&#34;:{&#34;r&#34;:1.0,&#34;g&#34;:1.0,&#34;b&#34;:1.0,&#34;a&#34;:1.0},&#34;position&#34;:1.0}],&#34;stopsVar&#34;:[{&#34;color&#34;:{&#34;r&#34;:0.29260727763175964,&#34;g&#34;:0.85480761528015137,&#34;b&#34;:0.77713531255722046,&#34;a&#34;:1.0},&#34;position&#34;:0.44711539149284363},{&#34;color&#34;:{&#34;r&#34;:0.0,&#34;g&#34;:0.59607845544815063,&#34;b&#34;:0.51372551918029785,&#34;a&#34;:1.0},&#34;position&#34;:0.78712338209152222},{&#34;color&#34;:{&#34;r&#34;:1.0,&#34;g&#34;:1.0,&#34;b&#34;:1.0,&#34;a&#34;:1.0},&#34;position&#34;:1.0}],&#34;transform&#34;:{&#34;m00&#34;:190.0,&#34;m01&#34;:0.0,&#34;m02&#34;:0.0,&#34;m10&#34;:0.0,&#34;m11&#34;:101.16440582275391,&#34;m12&#34;:-28.582202911376953},&#34;opacity&#34;:1.0,&#34;blendMode&#34;:&#34;NORMAL&#34;,&#34;visible&#34;:true}" mask="url(#path-1-inside-1_2110_5507)"/>
<defs>
<clipPath id="paint0_angular_2110_5507_clip_path"><path d="M22 0V2H168V0V-2H22V0ZM168 44V42H22V44V46H168V44ZM22 44V42C10.9543 42 2 33.0457 2 22H0H-2C-2 35.2548 8.74517 46 22 46V44ZM190 22H188C188 33.0457 179.046 42 168 42V44V46C181.255 46 192 35.2548 192 22H190ZM168 0V2C179.046 2 188 10.9543 188 22H190H192C192 8.74517 181.255 -2 168 -2V0ZM22 0V-2C8.74517 -2 -2 8.74517 -2 22H0H2C2 10.9543 10.9543 2 22 2V0Z" mask="url(#path-1-inside-1_2110_5507)"/></clipPath></defs>
</svg>
