<svg width="17" height="12" viewBox="0 0 17 12" fill="none" xmlns="http://www.w3.org/2000/svg">
<path d="M15.75 4.5H0.750001M0.750001 3.15L0.750001 8.85C0.750001 9.69008 0.750001 10.1101 0.913491 10.431C1.0573 10.7132 1.28677 10.9427 1.56902 11.0865C1.88988 11.25 2.30992 11.25 3.15 11.25L13.35 11.25C14.1901 11.25 14.6101 11.25 14.931 11.0865C15.2132 10.9427 15.4427 10.7132 15.5865 10.431C15.75 10.1101 15.75 9.69008 15.75 8.85V3.15C15.75 2.30992 15.75 1.88988 15.5865 1.56902C15.4427 1.28677 15.2132 1.0573 14.931 0.913491C14.6101 0.750001 14.1901 0.750001 13.35 0.750001L3.15 0.75C2.30992 0.75 1.88988 0.75 1.56902 0.91349C1.28677 1.0573 1.0573 1.28677 0.913491 1.56901C0.750001 1.88988 0.750001 2.30992 0.750001 3.15Z" stroke="black" stroke-width="1.5" stroke-linecap="round" stroke-linejoin="round"/>
</svg>
