<svg width="18" height="18" viewBox="0 0 18 18" fill="none" xmlns="http://www.w3.org/2000/svg">
<path d="M1.14686 14.1197C1.18515 13.7752 1.20429 13.6029 1.25642 13.4418C1.30268 13.299 1.36802 13.163 1.45069 13.0376C1.54388 12.8963 1.66645 12.7737 1.9116 12.5286L12.9169 1.52336C13.8373 0.602889 15.3297 0.60289 16.2502 1.52336C17.1707 2.44384 17.1707 3.93622 16.2502 4.8567L5.24493 15.8619C4.99978 16.1071 4.87721 16.2297 4.7359 16.3228C4.61054 16.4055 4.47457 16.4709 4.3317 16.5171C4.17067 16.5692 3.99838 16.5884 3.6538 16.6267L0.833496 16.94L1.14686 14.1197Z" stroke="white" stroke-width="1.66667" stroke-linecap="round" stroke-linejoin="round"/>
</svg>
