<svg width="17" height="16" viewBox="0 0 17 16" fill="none" xmlns="http://www.w3.org/2000/svg">
<path d="M8.50004 1.33301C11.2413 1.33301 13.4584 3.41967 13.4584 5.99967C13.4584 8.77967 10.3275 12.613 9.03837 14.073C8.75504 14.393 8.23796 14.393 7.95462 14.073C6.67254 12.613 3.54171 8.77967 3.54171 5.99967C3.54171 3.41967 5.75879 1.33301 8.50004 1.33301ZM8.50004 7.66634C8.96969 7.66634 9.42011 7.49075 9.75221 7.17819C10.0843 6.86563 10.2709 6.4417 10.2709 5.99967C10.2709 5.55765 10.0843 5.13372 9.75221 4.82116C9.42011 4.5086 8.96969 4.33301 8.50004 4.33301C8.03039 4.33301 7.57997 4.5086 7.24787 4.82116C6.91578 5.13372 6.72921 5.55765 6.72921 5.99967C6.72921 6.4417 6.91578 6.86563 7.24787 7.17819C7.57997 7.49075 8.03039 7.66634 8.50004 7.66634Z" fill="white"/>
</svg>
