<svg width="17" height="17" viewBox="0 0 17 17" fill="none" xmlns="http://www.w3.org/2000/svg">
<mask id="mask0_362_30055" style="mask-type:luminance" maskUnits="userSpaceOnUse" x="0" y="0" width="17" height="17">
<path d="M16.6756 8.33783C16.6756 9.43276 16.46 10.517 16.041 11.5286C15.622 12.5402 15.0078 13.4593 14.2336 14.2336C13.4593 15.0078 12.5402 15.622 11.5286 16.041C10.517 16.46 9.43276 16.6757 8.33782 16.6757C7.24289 16.6757 6.15867 16.46 5.14708 16.041C4.13549 15.622 3.21633 15.0078 2.44209 14.2336C1.66785 13.4593 1.05369 12.5402 0.634678 11.5286C0.215663 10.517 -1.63159e-08 9.43276 0 8.33783C-1.63159e-08 7.24289 0.215663 6.15867 0.634678 5.14708C1.05369 4.13549 1.66785 3.21633 2.44209 2.44209C3.21633 1.66785 4.13549 1.05369 5.14708 0.634679C6.15867 0.215664 7.24289 0 8.33782 0C9.43276 0 10.517 0.215664 11.5286 0.634679C12.5402 1.05369 13.4593 1.66785 14.2336 2.44209C15.0078 3.21633 15.622 4.13549 16.041 5.14708C16.46 6.15867 16.6756 7.24289 16.6756 8.33783Z" fill="white"/>
</mask>
<g mask="url(#mask0_362_30055)">
<path d="M0.795918 -0.347656C0.162289 -0.347656 -0.347412 0.163175 -0.347412 0.796805V15.8795C-0.347412 16.5131 0.162289 17.0228 0.795918 17.0228H15.8786C16.5122 17.0228 17.0231 16.5131 17.0231 15.8795V0.796805C17.0231 0.163175 16.5122 -0.347656 15.8786 -0.347656H0.795918Z" fill="#479951"/>
<path fill-rule="evenodd" clip-rule="evenodd" d="M6.71686 4.18263C6.70484 4.18227 6.68684 4.18899 6.66162 4.20395C6.60492 4.24196 6.49255 4.35904 6.48911 4.49374C6.48567 4.56973 6.47133 4.56943 6.52109 4.61779C6.55704 4.66962 6.59294 4.66453 6.66549 4.62651C6.70716 4.59582 6.72124 4.57623 6.73528 4.52475C6.75256 4.43841 6.64442 4.5656 6.6306 4.46951C6.60644 4.3803 6.67547 4.3436 6.74109 4.25726C6.74259 4.2166 6.74332 4.18341 6.71686 4.18263ZM7.77325 4.18845C7.75298 4.19117 7.72819 4.21714 7.69377 4.27955C7.66911 4.34491 7.56273 4.44383 7.6395 4.64783C7.7023 4.77718 7.7281 4.9874 7.69959 5.22158C7.65608 5.28814 7.64615 5.31107 7.5891 5.37762C7.50895 5.4638 7.42215 5.44177 7.35553 5.4096C7.2933 5.36765 7.24439 5.34612 7.21597 5.21286C7.2211 5.00045 7.23348 4.65278 7.19465 4.579C7.13742 4.46475 7.04308 4.50572 7.00275 4.54024C6.80901 4.71738 6.71331 5.01651 6.65481 5.25451C6.60108 5.42797 6.54382 5.3778 6.50362 5.30781C6.40575 5.2161 6.39887 4.49889 6.28071 4.6168C6.09147 5.15768 6.38932 5.75019 6.59569 5.6926C6.74458 5.75424 6.83905 5.47084 6.90001 5.16053C6.94171 5.07344 6.97357 5.06343 6.99499 5.1082C6.98948 5.52086 7.02457 5.61291 7.13067 5.73814C7.36734 5.92073 7.56309 5.76127 7.57844 5.7459C7.59379 5.73055 7.76259 5.56175 7.76259 5.56175C7.8036 5.51861 7.85779 5.51599 7.91572 5.554C7.97201 5.60517 7.96479 5.69332 8.08532 5.75462C8.18676 5.79519 8.40337 5.76449 8.45361 5.67709C8.52122 5.56121 8.53762 5.52139 8.56894 5.47744C8.6172 5.4132 8.69978 5.44164 8.69978 5.46193C8.69209 5.49775 8.64357 5.53309 8.67652 5.59761C8.73391 5.64066 8.74724 5.61299 8.78119 5.60343C8.90126 5.54604 8.9915 5.28554 8.9915 5.28554C8.99681 5.18838 8.94154 5.19575 8.90621 5.21576C8.86014 5.24392 8.85731 5.2535 8.81123 5.28166C8.75253 5.29039 8.63881 5.32911 8.58251 5.24193C8.52502 5.13712 8.5247 4.99099 8.48075 4.88527C8.48075 4.87758 8.40394 4.71904 8.47493 4.70888C8.51076 4.71554 8.5878 4.73545 8.59995 4.67108C8.63753 4.60835 8.51888 4.43037 8.4381 4.3406C8.36799 4.26364 8.27117 4.25426 8.1774 4.33285C8.11172 4.39327 8.12146 4.46076 8.10858 4.52475C8.09186 4.59824 8.09506 4.68927 8.16964 4.78642C8.23519 4.91568 8.35428 5.08152 8.31502 5.31558C8.31502 5.31558 8.24582 5.42697 8.12409 5.41249C8.07336 5.40143 7.99068 5.37947 7.94673 5.05488C7.91347 4.80918 7.95507 4.46494 7.85078 4.30376C7.82724 4.24294 7.80702 4.1839 7.77325 4.18845ZM7.43892 4.2145C7.40738 4.21725 7.37243 4.25399 7.34394 4.32498C7.3195 4.37897 7.28964 4.66129 7.29451 4.66129C7.27501 4.74532 7.3823 4.78093 7.43116 4.67292C7.5044 4.47492 7.50476 4.39057 7.50967 4.30659C7.49825 4.24262 7.47046 4.21174 7.43892 4.2145ZM8.67363 4.23679C8.64123 4.23973 8.61542 4.25869 8.60579 4.30657C8.59288 4.41914 8.59947 4.48034 8.61839 4.57406C8.63289 4.63655 8.72385 4.74117 8.76861 4.80182C8.98248 5.08929 9.18825 5.37814 9.38696 5.67699C9.41819 5.89889 9.44108 6.11595 9.45577 6.33215C9.48797 6.80616 9.49775 7.39622 9.46837 7.89542C9.55718 7.89892 9.69948 7.75201 9.74943 7.53684C9.78191 7.23918 9.73786 6.63186 9.73489 6.4562C9.7328 6.38328 9.72831 6.29627 9.72326 6.20519C9.9544 6.5829 10.1786 6.98307 10.3988 7.42247C10.479 7.38433 10.4612 6.93251 10.4143 6.86906C10.2381 6.48986 9.99469 6.11556 9.9171 5.97159C9.88909 5.9196 9.79368 5.77451 9.68062 5.60718C9.6598 5.36843 9.63718 5.1662 9.62247 5.10514C9.58611 4.85274 9.7262 5.1336 9.70679 4.9869C9.66134 4.73485 9.52222 4.56356 9.35789 4.3327C9.3049 4.25761 9.30595 4.2423 9.22414 4.35111C9.17524 4.46204 9.17591 4.55433 9.19022 4.6409C9.1687 4.60963 9.1421 4.57255 9.10396 4.52653C8.96205 4.40478 8.95329 4.39812 8.8355 4.29878C8.79836 4.27242 8.72765 4.23185 8.67365 4.23675L8.67363 4.23679ZM12.3332 4.27459C12.3174 4.27213 12.3003 4.27989 12.2809 4.30851C12.2439 4.34096 12.2041 4.39971 12.2053 4.47521C12.2143 4.60822 12.238 4.7444 12.247 4.87742C12.2501 4.89522 12.2535 4.91293 12.2567 4.93073C12.2424 4.91249 12.2299 4.89826 12.2227 4.89099C11.9635 4.61863 12.3419 4.84648 12.1733 4.6361C12.0308 4.47958 11.9891 4.42978 11.8671 4.33566C11.8059 4.29611 11.7689 4.22056 11.7488 4.34922C11.7408 4.46226 11.7325 4.59316 11.7401 4.68845C11.7397 4.7414 11.7945 4.84109 11.8419 4.89973C12.0148 5.11223 12.1915 5.33832 12.3691 5.57427C12.4065 6.05548 12.4164 6.49659 12.4544 6.9786C12.449 7.18475 12.3856 7.45856 12.3255 7.48449C12.3255 7.48449 12.2337 7.53723 12.1723 7.47868C12.1277 7.46076 11.9494 7.18114 11.9494 7.18114C11.8582 7.09746 11.7973 7.12137 11.7323 7.18114C11.5532 7.3541 11.4722 7.67807 11.3505 7.90124C11.3191 7.95104 11.2307 7.99343 11.1324 7.89736C10.8828 7.55634 11.0288 7.07092 10.9977 7.19568C10.7754 7.44623 10.8739 7.86139 10.9241 7.95068C10.9974 8.09731 11.0567 8.1912 11.1993 8.26373C11.3292 8.35935 11.4304 8.29967 11.4862 8.23271C11.6169 8.09723 11.6187 7.75076 11.68 7.68222C11.7231 7.55631 11.8309 7.57797 11.8835 7.63376C11.9345 7.70707 11.9947 7.75476 12.0696 7.79465C12.1916 7.90221 12.3371 7.92175 12.4806 7.82372C12.5786 7.76874 12.6422 7.69727 12.6996 7.55623C12.7612 7.39153 12.7307 6.52838 12.717 6.0482C12.8091 6.17793 12.9 6.31047 12.9903 6.44458C13.03 6.86609 13.048 7.2812 13.0349 7.67929C13.0256 7.75844 13.3111 7.44298 13.3092 7.29355C13.3079 7.1628 13.3094 7.0443 13.3092 6.93398C13.4477 7.15512 13.5818 7.37995 13.7085 7.60756C13.787 7.56595 13.7601 7.12133 13.7104 7.05998C13.5778 6.83735 13.4078 6.59677 13.2762 6.41062C13.2502 6.1757 13.2148 5.89853 13.1987 5.81361C13.1736 5.6812 13.1485 5.48229 13.1105 5.32515C13.1001 5.26379 13.0687 5.06778 13.0785 5.04894C13.094 5.00508 13.1525 5.05034 13.1813 4.99951C13.2244 4.95252 13.0318 4.45373 12.9341 4.31138C12.899 4.24758 12.8354 4.26966 12.7568 4.37341C12.6838 4.44168 12.7105 4.59743 12.7384 4.74557C12.8107 5.12313 12.8753 5.50763 12.9264 5.89115C12.8318 5.75052 12.7163 5.58036 12.6027 5.41627C12.5996 5.40044 12.5881 5.34245 12.5881 5.34164C12.5881 5.33486 12.5725 5.03278 12.559 4.96076C12.5567 4.93154 12.5497 4.92312 12.5804 4.92684C12.6128 4.95416 12.6173 4.95564 12.6375 4.96464C12.6703 4.97064 12.699 4.91521 12.6792 4.86385C12.5778 4.67676 12.4763 4.48883 12.3749 4.30173C12.3627 4.28971 12.349 4.27704 12.3332 4.27459ZM2.88868 4.28428C2.83247 4.28267 2.77046 4.31751 2.79467 4.38507C2.78057 4.4219 2.90469 4.54637 2.92648 4.61477C2.94601 4.66347 2.9071 4.8203 2.9478 4.83477C2.98522 4.85099 3.03675 4.72621 3.05635 4.61089C3.06719 4.54771 3.05898 4.33151 2.91194 4.28717C2.90441 4.28547 2.89671 4.28451 2.88868 4.28428ZM13.6476 4.28552C13.6348 4.28679 13.6192 4.3075 13.5952 4.35821C13.5377 4.45243 13.5179 4.62112 13.541 4.7701C13.6795 5.7068 13.7824 6.61382 13.8036 7.44405C13.7917 7.52286 13.7882 7.56478 13.7513 7.66406C13.6695 7.76884 13.5794 7.9002 13.4945 7.96353C13.4095 8.02683 13.2289 8.08719 13.1698 8.13411C12.9823 8.24245 12.9814 8.36705 13.1329 8.37155C13.3941 8.34123 13.7032 8.3198 13.916 7.99843C13.973 7.90837 14.0401 7.66423 14.043 7.5148C14.0629 6.63876 14.0318 5.7822 13.9005 5.14906C13.8921 5.08738 13.8649 4.94562 13.8753 4.92712C13.8922 4.88376 13.9777 4.93146 14.0081 4.88157C14.0527 4.83599 13.7871 4.49588 13.6941 4.35046C13.6755 4.31394 13.6641 4.28389 13.6476 4.28552ZM10.9087 4.30006C10.8979 4.30192 10.882 4.31833 10.8525 4.35724C10.7795 4.59578 10.7539 4.79059 10.7818 4.93874C10.9692 5.91672 11.1612 6.80771 11.1307 7.73868C11.2195 7.73927 11.3223 7.53537 11.3662 7.33358C11.3902 7.05558 11.3501 6.88639 11.3429 6.72298C11.3357 6.55959 11.1579 5.2339 11.1219 5.11028C11.0785 4.87652 11.2948 5.07953 11.2712 4.94358C11.1964 4.77219 11.0098 4.5226 10.9514 4.37371C10.9294 4.33383 10.9267 4.29696 10.9087 4.30006ZM4.23987 4.31847C4.21684 4.32246 4.19462 4.34144 4.18657 4.37275C4.1815 4.39325 4.19545 4.42736 4.17688 4.43768C4.16622 4.44843 4.12576 4.44121 4.12745 4.38438C4.12745 4.36628 4.11416 4.34739 4.10613 4.33592C4.09806 4.33063 4.09262 4.32913 4.07802 4.32913C4.06023 4.32985 4.06064 4.33454 4.05088 4.34948C4.04654 4.36468 4.04096 4.37957 4.04096 4.39694C4.03874 4.41716 4.03064 4.42401 4.01576 4.42698C3.99913 4.42698 4.00307 4.42879 3.98959 4.4202C3.98159 4.41144 3.97215 4.408 3.97215 4.39306C3.97215 4.37759 3.96808 4.35288 3.96342 4.34266C3.95636 4.33335 3.9452 4.3285 3.93241 4.32522C3.86273 4.32547 3.85766 4.40554 3.86166 4.4357C3.85644 4.44139 3.85386 4.5833 3.94889 4.62275C4.07646 4.68358 4.31569 4.65786 4.30554 4.45218C4.30554 4.43398 4.30154 4.37289 4.29973 4.35623C4.28671 4.32591 4.26267 4.31444 4.23964 4.31843L4.23987 4.31847ZM5.95145 4.32041C5.90736 4.32266 5.86844 4.33529 5.83515 4.35239C5.75059 4.43336 5.73077 4.56315 5.79735 4.64411C5.86215 4.67471 5.92681 4.73994 5.8836 4.77592C5.70035 4.97165 5.22342 5.29871 5.19938 5.35838C5.1992 5.35887 5.19852 5.35987 5.19842 5.36032C5.19835 5.36075 5.19842 5.36187 5.19842 5.36226C5.19843 5.36245 5.19839 5.36305 5.19842 5.36323C5.19857 5.36372 5.19908 5.36477 5.19938 5.36517C5.19951 5.36529 5.20021 5.36602 5.20035 5.36613C5.20051 5.36623 5.20115 5.36604 5.20132 5.36613C5.2015 5.36623 5.20208 5.36703 5.20229 5.3671C5.2025 5.36716 5.20301 5.36704 5.20325 5.3671C5.20332 5.36716 5.20414 5.368 5.20422 5.36807C5.22846 5.38432 5.52689 5.38394 5.55992 5.36904C5.56016 5.36891 5.56068 5.3682 5.56088 5.36807C5.56098 5.36801 5.56177 5.36813 5.56185 5.36807C5.56191 5.36801 5.56179 5.36717 5.56185 5.3671C5.66441 5.32931 6.15111 4.77301 6.15111 4.77301C6.12588 4.75141 6.10265 4.73549 6.07745 4.71389C6.05044 4.69051 6.05316 4.66752 6.07745 4.64411C6.19799 4.57396 6.15979 4.41963 6.09683 4.34948C6.04464 4.32608 5.99554 4.31816 5.95145 4.32041ZM10.4251 4.32235C10.4123 4.32362 10.3967 4.34336 10.3728 4.39407C10.3153 4.48828 10.2762 4.65235 10.2807 4.80596C10.4053 5.66857 10.4435 6.42344 10.525 7.28608C10.5316 7.36951 10.5194 7.49071 10.4639 7.53903C10.2588 7.75322 9.96301 8.01738 9.64109 8.13896C9.60646 8.17784 9.72721 8.34361 9.88339 8.34345C10.1446 8.31313 10.3741 8.16655 10.587 7.78037C10.6439 7.69031 10.744 7.49754 10.7469 7.34811C10.7668 6.47207 10.7028 5.79095 10.5715 5.15778C10.5631 5.0961 10.5688 5.02315 10.5793 5.00465C10.5962 4.98445 10.6535 5.00511 10.6839 4.95522C10.7286 4.90964 10.5647 4.53173 10.4717 4.3863C10.4531 4.34978 10.4416 4.32071 10.4251 4.32235ZM3.49456 4.34871C3.45851 4.35292 3.4246 4.38227 3.4083 4.4214C3.40227 4.55975 3.40146 4.69804 3.41703 4.82554C3.47995 5.04917 3.49988 5.24586 3.53042 5.4749C3.53889 5.78165 3.35328 5.60759 3.36178 5.45551C3.40464 5.25798 3.39307 4.94702 3.355 4.86818C3.3248 4.78937 3.28983 4.76992 3.2164 4.78289C3.1581 4.77933 3.00749 4.94343 2.96539 5.21516C2.96539 5.21516 2.93031 5.35461 2.91499 5.47877C2.89439 5.6191 2.80143 5.71847 2.73666 5.45939C2.68068 5.27108 2.64627 4.80711 2.55252 4.91569C2.52567 5.27796 2.49378 5.91541 2.80159 5.98082C3.17391 6.01661 2.96825 5.35143 3.10301 5.23067C3.12849 5.17099 3.1757 5.16993 3.17957 5.2452V5.81024C3.17617 5.99392 3.29704 6.0485 3.39085 6.08645C3.48848 6.07892 3.55321 6.08159 3.59147 6.17658C3.60673 6.50229 3.62274 6.8288 3.638 7.15447C3.638 7.15447 3.86369 7.21933 3.87447 6.60494C3.88529 6.24419 3.80264 5.94147 3.85121 5.87129C3.85293 5.80233 3.94132 5.79892 4.0024 5.83252C4.09972 5.90116 4.14289 5.98565 4.29412 5.95173C4.52426 5.88833 4.66287 5.77663 4.66629 5.59991C4.65284 5.43199 4.63342 5.26388 4.56065 5.09594C4.57081 5.0654 4.5166 4.98595 4.52672 4.95541C4.56808 5.02018 4.63065 5.01481 4.64496 4.95541C4.60579 4.82634 4.54482 4.70267 4.44629 4.64915C4.36485 4.57741 4.24569 4.59259 4.20205 4.7422C4.18183 4.91459 4.26453 5.11892 4.39007 5.28589C4.41674 5.35113 4.45404 5.45964 4.43756 5.55726C4.37076 5.59537 4.30453 5.57951 4.24857 5.52043C4.24857 5.52043 4.0654 5.38331 4.0654 5.35277C4.11401 5.04155 4.07587 5.00591 4.04892 4.91954C4.0301 4.80031 3.9736 4.76256 3.92778 4.68112C3.88195 4.63255 3.81979 4.63255 3.79016 4.68112C3.70919 4.82148 3.74718 5.12282 3.80566 5.25779C3.84792 5.38192 3.91274 5.45938 3.88223 5.45938C3.8571 5.52952 3.80469 5.5132 3.7669 5.43224C3.71294 5.26491 3.70196 5.01551 3.70196 4.90309C3.68577 4.7637 3.66771 4.46595 3.57597 4.3904C3.55149 4.35706 3.52259 4.34543 3.49456 4.34871ZM4.80196 4.35065C4.78349 4.35298 4.76306 4.3635 4.73897 4.36906C4.65982 4.39426 4.58572 4.46268 4.6091 4.59585C4.70266 5.16439 4.76365 5.5983 4.85721 6.16687C4.87159 6.23345 4.81577 6.32122 4.74382 6.31225C4.62146 6.22947 4.5911 6.06182 4.38232 6.06898C4.23118 6.0708 4.05882 6.23526 4.0373 6.39366C4.0121 6.51955 4.00313 6.65604 4.0373 6.76583C4.14352 6.89355 4.27076 6.87993 4.38232 6.85111C4.47407 6.81335 4.54956 6.72293 4.58197 6.7445C4.58207 6.7446 4.58286 6.74438 4.58294 6.7445C4.58303 6.74463 4.58285 6.74534 4.58294 6.74547C4.60295 6.78044 4.58105 7.07617 4.15067 7.30468C3.88619 7.42343 3.67567 7.45181 3.56238 7.23586C3.4922 7.10091 3.56748 6.58694 3.39471 6.70572C2.88376 8.02277 4.59177 8.20662 4.78257 6.75999C4.79493 6.71918 4.83256 6.67823 4.85913 6.68827C4.87079 6.69324 4.88146 6.70907 4.8853 6.73867C4.84569 8.04853 3.56394 8.13831 3.34626 7.72626C3.2923 7.62914 3.27607 7.41293 3.27066 7.28336C3.26079 7.20497 3.24112 7.15976 3.21832 7.14186C3.16639 7.10284 3.09661 7.2046 3.08167 7.38125C3.06007 7.52339 3.06617 7.56241 3.06617 7.69914C3.13453 8.73372 4.78394 8.2892 5.05199 7.43455C5.18469 6.99274 5.04929 6.65943 5.09367 6.61853C5.09405 6.6182 5.0952 6.61784 5.09561 6.61756C5.09603 6.61731 5.0971 6.61681 5.09755 6.61659C5.09801 6.61641 5.09899 6.61578 5.09948 6.61562C5.10099 6.61522 5.10353 6.61468 5.1053 6.61466C5.26904 6.79102 5.4988 6.63706 5.54916 6.57589C5.57077 6.54529 5.6248 6.52565 5.66256 6.56523C5.79028 6.65704 6.01416 6.61376 6.06089 6.45184C6.0879 6.29351 6.11073 6.1305 6.11614 5.96145C6.03294 5.98728 5.9658 6.00662 5.93877 6.03511C5.93234 6.04213 5.92758 6.04993 5.92618 6.05837C5.91895 6.10516 5.91207 6.1521 5.90485 6.1989C5.90408 6.20276 5.90284 6.20634 5.90098 6.20956C5.89743 6.2153 5.89157 6.2206 5.88547 6.22409C5.85606 6.24015 5.80477 6.23097 5.80212 6.18824C5.76255 6.00831 5.59968 5.9849 5.50071 6.26383C5.43412 6.31779 5.31272 6.32832 5.30009 6.24736C5.31628 6.06024 5.24089 6.03512 5.08978 6.1233C5.0412 5.75266 4.99301 5.3988 4.9444 5.02815C5.00739 5.02634 5.06515 5.07201 5.12273 5.00005C5.06042 4.80625 4.92856 4.41194 4.85427 4.37494C4.85369 4.37466 4.85291 4.37419 4.85233 4.37397C4.84896 4.36992 4.84497 4.36619 4.84167 4.36331C4.8403 4.36215 4.83819 4.36042 4.83683 4.35943C4.83546 4.35849 4.83334 4.3573 4.83198 4.35653C4.829 4.35489 4.82527 4.35356 4.82229 4.35265C4.81551 4.35073 4.80893 4.34983 4.80194 4.35071L4.80196 4.35065ZM9.89873 4.35355C9.83336 4.35162 9.76103 4.39281 9.78921 4.4747C9.7728 4.51937 9.92965 4.67089 9.95494 4.75382C10.0005 4.88124 9.92018 5.00278 9.96754 5.02035C10.0111 5.04001 10.0717 4.8888 10.0945 4.74898C10.1208 4.63594 10.0402 4.40429 9.92587 4.35647C9.91711 4.35441 9.90806 4.35383 9.89873 4.35355ZM5.92806 4.49312C5.95783 4.49008 5.9938 4.51743 6.01141 4.55611C6.0302 4.59737 6.02078 4.63679 5.99009 4.64431C5.9594 4.65182 5.91972 4.62451 5.90093 4.58325C5.88214 4.54199 5.89156 4.5016 5.92225 4.49408C5.92417 4.49361 5.92608 4.49332 5.92806 4.49312ZM13.2938 4.68404C13.2342 4.68195 13.1692 4.7272 13.1949 4.81585C13.18 4.86421 13.3221 5.02845 13.3451 5.11823C13.3659 5.18212 13.3136 5.38804 13.3568 5.40704C13.3965 5.42833 13.4524 5.26477 13.4731 5.11338C13.4846 5.03051 13.4232 4.7397 13.319 4.68791C13.311 4.68568 13.3023 4.68434 13.2938 4.68404ZM9.22139 4.78483C9.22684 4.80914 9.23229 4.8336 9.23593 4.85849C9.24814 4.9122 9.25867 4.96554 9.26985 5.0184C9.22281 4.95363 9.18387 4.90129 9.16712 4.88272C9.06067 4.75622 9.16952 4.79965 9.22139 4.78483ZM10.1596 5.24616C10.1365 5.25015 10.1143 5.2701 10.1062 5.3014C10.1012 5.32191 10.1161 5.35505 10.0975 5.36537C10.0869 5.37612 10.0454 5.36986 10.0471 5.31303C10.0471 5.29493 10.0338 5.27508 10.0258 5.2636C10.0177 5.25832 10.0123 5.25682 9.9977 5.25682C9.97991 5.25754 9.98031 5.26223 9.97056 5.27717C9.96643 5.29239 9.96087 5.3074 9.96087 5.32466C9.95865 5.34488 9.95152 5.35173 9.93664 5.3547C9.92001 5.3547 9.92298 5.35651 9.9095 5.34792C9.9015 5.33917 9.89206 5.33572 9.89206 5.32078C9.89206 5.30531 9.88799 5.28061 9.88333 5.27039C9.87627 5.26107 9.86511 5.25719 9.85232 5.25391C9.78264 5.25416 9.77854 5.33326 9.78254 5.36342C9.77732 5.36911 9.77377 5.51199 9.86879 5.55144C9.99637 5.61227 10.2366 5.58559 10.2264 5.3799C10.2264 5.36171 10.2214 5.30062 10.2196 5.28395C10.2066 5.25363 10.1826 5.24217 10.1596 5.24616ZM5.87596 5.2888C5.86023 5.2872 5.83961 5.29298 5.81587 5.30722C5.70306 5.36824 5.65938 5.54925 5.72962 5.65516C5.79523 5.74844 5.89897 5.71428 5.91279 5.71428C6.02332 5.72809 6.08918 5.50687 6.08918 5.50687C6.08918 5.50687 6.09251 5.44467 5.96125 5.56212C5.90601 5.57246 5.8985 5.55251 5.88468 5.52141C5.87318 5.46386 5.87565 5.40551 5.90213 5.34793C5.91436 5.31341 5.90219 5.29147 5.87596 5.2888ZM11.9314 5.31691C11.8687 5.31386 11.8021 5.35442 11.785 5.44C11.7853 5.49048 11.8078 5.51823 11.8034 5.56405C11.7969 5.59025 11.7699 5.60747 11.7055 5.57665C11.7156 5.5674 11.6639 5.49427 11.6639 5.49427C11.6137 5.4637 11.5466 5.49593 11.503 5.52432C11.479 5.56796 11.4612 5.64275 11.4884 5.71912C11.5605 5.85225 11.8077 6.07943 11.9255 6.0816C11.9277 5.96157 11.9394 5.80194 11.9459 5.70265C11.9487 5.66517 11.9575 5.62386 11.9934 5.61445C12.0293 5.60508 12.0916 5.65056 12.0922 5.61155C12.0857 5.53518 12.0704 5.42249 12.0273 5.36925C12.0052 5.33651 11.9689 5.31874 11.9314 5.31691ZM6.91895 5.73463C6.91728 5.73524 6.91563 5.73667 6.9141 5.73754C6.91335 5.73799 6.91195 5.73893 6.9112 5.73948C6.89872 5.74884 6.884 5.77045 6.85111 5.79375C6.79562 5.85686 6.78567 5.90081 6.78908 6.02732C6.79224 6.0407 6.89442 6.3248 6.98098 6.5245C7.03934 6.73206 7.09333 6.96973 7.05367 7.1942C6.91703 7.49095 6.64233 7.7571 6.3772 7.90168C6.24211 7.94495 6.12545 7.93021 6.0942 7.90072C6.09395 7.90047 6.09346 7.89998 6.09323 7.89975C6.01565 7.84759 6.01387 7.75474 6.01861 7.73887C6.01861 7.73877 6.01861 7.73801 6.01861 7.7379C6.01879 7.73771 6.0194 7.7371 6.01957 7.73693C6.2433 7.5811 6.49886 7.45497 6.69896 7.03429C6.75804 6.87352 6.77607 6.77699 6.71737 6.52839C6.69449 6.43576 6.66622 6.35954 6.60301 6.29385C6.60316 6.29367 6.60381 6.29306 6.60398 6.29289C6.64206 6.27467 6.74087 6.34746 6.75613 6.30161C6.73275 6.18292 6.65236 6.02357 6.56133 5.94204C6.48162 5.86964 6.39491 5.86126 6.32195 5.9275C6.23976 5.97323 6.22228 6.13748 6.26186 6.28124C6.30581 6.38946 6.42447 6.40845 6.509 6.62627C6.509 6.62648 6.50899 6.62716 6.509 6.62723C6.51076 6.64089 6.53801 6.78982 6.49543 6.85014C6.46088 6.95789 6.01708 7.30787 5.98563 7.32893C5.98528 7.32928 5.98306 7.33054 5.98272 7.33087C5.98254 7.33106 5.98192 7.33168 5.98176 7.33184C5.98166 7.3319 5.98099 7.3326 5.98079 7.3328C5.98069 7.3329 5.97991 7.33367 5.97982 7.33377C5.97973 7.33377 5.97896 7.33378 5.97885 7.33377C5.97879 7.33377 5.9781 7.33377 5.97788 7.33377C5.9777 7.33362 5.97709 7.33298 5.97692 7.3328C5.97692 7.33271 5.97692 7.33192 5.97692 7.33184C5.97673 7.3315 5.97612 7.33025 5.97595 7.3299C5.97461 7.32116 5.97696 7.29891 5.97595 7.26303C5.97303 7.19745 6.00018 7.0491 5.99824 7.02364C5.99824 7.02355 5.99824 7.02277 5.99824 7.02267C5.99805 7.02249 5.99745 7.02188 5.99727 7.02171C5.99727 7.02161 5.99727 7.02084 5.99727 7.02074C5.99706 7.02074 5.99634 7.02074 5.99631 7.02074C5.84961 7.11546 5.80116 7.4058 5.77437 7.49177C5.40298 7.74838 4.98123 7.9393 4.73833 8.19925C4.61182 8.39681 5.60993 7.9724 5.72592 7.9211C5.72692 7.92184 5.72791 7.92305 5.72883 7.924C5.75088 7.94827 5.75276 8.03287 5.81896 8.10912C5.92271 8.24966 6.14324 8.33621 6.35782 8.2826C6.71767 8.15253 6.925 7.90727 7.13607 7.63519C7.16624 7.59131 7.21352 7.55673 7.25722 7.59061C7.40226 7.91532 7.82046 8.14637 8.36111 8.17019C8.48622 8.01805 8.42639 7.94324 8.37565 7.91142C8.36002 7.90104 8.10677 7.8023 8.06745 7.70402C8.0427 7.61255 8.10289 7.53143 8.22349 7.47045C8.57063 7.42847 8.91187 7.38183 9.2421 7.27565C9.24544 7.16471 9.31079 6.9988 9.35452 6.92674C9.38489 6.87675 9.40441 6.8718 9.41171 6.86472C9.41195 6.86447 9.41247 6.864 9.41267 6.86375C9.41277 6.86363 9.41355 6.86292 9.41364 6.86278C9.41383 6.86263 9.41443 6.86199 9.41461 6.86181C9.41461 6.86148 9.41462 6.86022 9.41461 6.85988C9.41479 6.85768 9.41459 6.8539 9.41364 6.85018L9.35743 6.81723L8.24966 6.81239C8.23597 6.80712 8.2258 6.80183 8.21961 6.79688C8.21914 6.79649 8.2181 6.79533 8.21767 6.79494C8.21749 6.79476 8.21689 6.79417 8.21671 6.79397C8.21652 6.79379 8.2159 6.7932 8.21574 6.79301C8.21558 6.79267 8.21492 6.79141 8.21477 6.79107C8.21468 6.79098 8.21391 6.7902 8.2138 6.7901C8.21381 6.79001 8.21379 6.78924 8.2138 6.78913C8.21371 6.78904 8.21295 6.78827 8.21284 6.78817C8.21284 6.78807 8.21283 6.7873 8.21284 6.7872C8.21284 6.78711 8.21283 6.78633 8.21284 6.78623C8.21284 6.78614 8.21283 6.78536 8.21284 6.78526C8.21283 6.78511 8.21284 6.78444 8.21284 6.78429C8.21284 6.78423 8.21284 6.78353 8.21284 6.78333C8.21283 6.78323 8.21284 6.78246 8.21284 6.78236C8.21283 6.78227 8.21284 6.78149 8.21284 6.78139C8.21283 6.7813 8.21284 6.78053 8.21284 6.78042C8.21302 6.78024 8.21362 6.77963 8.2138 6.77946C8.21405 6.77895 8.21444 6.77802 8.21477 6.77752C8.22018 6.77023 8.23329 6.76336 8.24966 6.75717C8.51418 6.72113 8.98412 6.64409 9.01532 6.19213C9.01045 5.95671 8.91459 5.80257 8.62573 5.75986C8.41348 5.77628 8.2621 5.98158 8.28651 6.20764C8.27635 6.2685 8.3071 6.38794 8.24483 6.40147C7.83768 6.43867 7.39329 6.69378 7.37837 6.87635C7.37828 6.87633 7.37749 6.87636 7.37741 6.87635C7.37725 6.87654 7.37661 6.87714 7.37644 6.87732C7.37613 6.87747 7.37501 6.87803 7.3745 6.87829C7.37416 6.87828 7.3729 6.8783 7.37256 6.87829C7.37191 6.8785 7.37032 6.87908 7.36966 6.87925C7.36947 6.87927 7.36894 6.87925 7.36869 6.87925C7.36814 6.87925 7.36712 6.87925 7.36675 6.87925C7.36656 6.87925 7.36603 6.87925 7.36578 6.87925C7.36537 6.87926 7.36418 6.87927 7.36384 6.87925C7.36279 6.87904 7.36088 6.87852 7.35997 6.87829C7.33349 6.87093 7.29937 6.82723 7.30473 6.76586C7.28922 6.45024 7.1865 6.09309 7.0256 5.81803C6.96819 5.76063 6.94317 5.73737 6.92675 5.73468C6.92622 5.73462 6.92532 5.7347 6.92481 5.73468C6.92413 5.73468 6.92278 5.73469 6.9219 5.73468C6.92175 5.73468 6.92108 5.73467 6.92094 5.73468C6.92084 5.73468 6.92006 5.73469 6.91997 5.73468C6.91984 5.73471 6.91912 5.73465 6.919 5.73468L6.91895 5.73463ZM7.97924 5.90133C7.95621 5.90532 7.93398 5.9243 7.92593 5.9556C7.92087 5.97611 7.93578 6.01022 7.91721 6.02054C7.90655 6.03129 7.86512 6.02503 7.86681 5.9682C7.86681 5.9501 7.85352 5.93025 7.84549 5.91877C7.83743 5.91349 7.83295 5.91199 7.81835 5.91199C7.80057 5.91271 7.8 5.9174 7.79025 5.93234C7.78612 5.94757 7.78056 5.96258 7.78056 5.97983C7.77833 6.00006 7.77121 6.00691 7.75633 6.00987C7.7397 6.00987 7.74363 6.01169 7.73016 6.00309C7.72216 5.99434 7.71174 5.9909 7.71174 5.97595C7.71174 5.96048 7.70865 5.93578 7.70399 5.92556C7.69693 5.91624 7.68479 5.91236 7.67201 5.90908C7.60233 5.90933 7.59823 5.98843 7.60223 6.0186C7.59701 6.02429 7.59346 6.16717 7.68848 6.20662C7.81605 6.26745 8.12007 6.23163 8.0461 6.03507C8.0461 6.01688 8.04113 5.95579 8.03932 5.93912C8.0263 5.9088 8.00227 5.89734 7.97924 5.90133ZM12.2582 6.07675C12.255 6.07617 12.2513 6.07639 12.2475 6.07772C12.2475 6.07772 11.6564 6.49823 11.6418 6.51287C11.5832 6.56498 11.6125 6.74822 11.6418 6.72705C11.6841 6.74334 12.2792 6.34006 12.2679 6.29286C12.2938 6.29438 12.3063 6.08542 12.2582 6.07675ZM8.53779 6.13909C8.56191 6.13653 8.59356 6.14471 8.62405 6.16235C8.66817 6.18787 8.69537 6.22641 8.69189 6.25442C8.69176 6.25518 8.69204 6.25658 8.69189 6.25732C8.6917 6.25806 8.69017 6.25951 8.68995 6.26023C8.6897 6.26094 8.68926 6.26244 8.68898 6.26314C8.6888 6.26359 8.68823 6.26462 8.68801 6.26507C8.6878 6.26552 8.6873 6.26658 8.68705 6.26701C8.6856 6.26938 8.68321 6.27186 8.68123 6.2738C8.66002 6.29361 8.61106 6.29079 8.56493 6.26411C8.52121 6.23882 8.49419 6.19997 8.49709 6.17203C8.49718 6.17127 8.49792 6.16987 8.49806 6.16913C8.49879 6.16566 8.50016 6.1625 8.50193 6.15943C8.50257 6.15834 8.50312 6.15656 8.50387 6.15556C8.50403 6.15537 8.50468 6.15478 8.50484 6.15459C8.50614 6.15307 8.50811 6.15104 8.50968 6.14974C8.51672 6.14421 8.52668 6.14026 8.53779 6.13909ZM3.36132 6.24569C3.05504 6.25129 2.60652 6.64716 2.5947 6.86693C2.91789 6.71172 3.23535 6.56234 3.56387 6.40172C3.51086 6.32257 3.56066 6.25126 3.36132 6.24569ZM4.35376 6.38332C4.38378 6.38365 4.41545 6.39848 4.43226 6.4405C4.44739 6.47904 4.43297 6.51935 4.41481 6.53935C4.41472 6.53951 4.41491 6.54017 4.41481 6.54032C4.41453 6.54077 4.41415 6.54184 4.41384 6.54226C4.40099 6.55882 4.35586 6.55195 4.32371 6.55195C4.28483 6.55023 4.26565 6.54385 4.2423 6.51222C4.23114 6.47705 4.26513 6.4425 4.2801 6.41627C4.28026 6.41602 4.28092 6.41554 4.28107 6.4153C4.28269 6.41286 4.28535 6.40993 4.28785 6.40755C4.29948 6.3969 4.3196 6.38694 4.34116 6.38429C4.34535 6.38377 4.34947 6.38327 4.35376 6.38332ZM12.1431 6.5052C12.0887 6.51192 12.0369 6.56341 12.0607 6.64573C12.0458 6.69409 12.1346 6.86318 12.1577 6.95295C12.1784 7.01685 12.131 7.19756 12.1741 7.21657C12.2139 7.23786 12.3183 7.10928 12.3147 6.94811C12.3262 6.86524 12.2851 6.55991 12.1809 6.50809C12.1689 6.50474 12.1557 6.50365 12.1431 6.5052ZM5.52762 6.8037C5.47948 6.80707 5.43653 6.8328 5.4559 6.90062C5.45299 6.94983 5.5919 7.00965 5.6003 7.12353C5.62015 7.17048 5.57061 7.32084 5.61193 7.33481C5.64988 7.35044 5.70254 7.23088 5.72242 7.11966C5.73342 7.05873 5.67476 6.84563 5.57511 6.8076C5.55981 6.80431 5.54366 6.80258 5.52762 6.8037ZM7.50765 7.07411C7.5113 7.07386 7.51452 7.07413 7.51831 7.07411C7.51894 7.0741 7.51961 7.0741 7.52025 7.07411C7.64366 7.10765 7.82559 7.11112 7.98352 7.12741C8.11216 7.13557 8.17572 7.23628 8.05524 7.2786C7.93639 7.3193 7.82221 7.35109 7.82167 7.52283C7.8373 7.60791 7.83399 7.65255 7.82071 7.67306C7.81967 7.6746 7.81798 7.67664 7.81683 7.6779C7.81668 7.67809 7.81603 7.6787 7.81586 7.67887C7.81568 7.67903 7.81507 7.67968 7.81489 7.67984C7.81471 7.67999 7.8141 7.68066 7.81393 7.68081L7.81296 7.68177C7.81262 7.68193 7.81137 7.68258 7.81102 7.68274C7.80929 7.68381 7.80709 7.68496 7.80521 7.68565C7.80354 7.68621 7.80116 7.68632 7.79939 7.68661C7.77114 7.69076 7.73011 7.66382 7.69956 7.64785C7.62629 7.59524 7.42066 7.4678 7.39137 7.19428C7.3872 7.13255 7.43338 7.07933 7.50765 7.07411ZM2.6714 7.28441C2.66369 7.28466 2.64826 7.30769 2.62779 7.33384C2.44557 7.62412 2.42937 8.05742 2.5299 8.18672C2.58332 8.2478 2.67141 8.27466 2.73633 8.25553C2.85081 8.20589 2.90112 7.97402 2.87395 7.8892C2.83576 7.8294 2.80548 7.81992 2.76735 7.87078C2.68679 8.03433 2.65327 7.92245 2.6462 7.83105C2.63385 7.65771 2.65064 7.49809 2.66946 7.37168C2.67948 7.30689 2.67911 7.28421 2.6714 7.28445L2.6714 7.28441ZM8.87906 7.66557C8.86551 7.66485 8.85106 7.66696 8.83642 7.67429C8.83354 7.67429 8.70598 7.76056 8.66488 7.82064C8.63981 7.83971 8.64265 7.85628 8.65034 7.88945C8.66988 7.93437 8.70431 7.92028 8.74338 7.89914C8.79524 7.89208 8.82032 7.92604 8.81607 7.98831C8.79213 8.06596 8.82673 8.09489 8.82673 8.09976C8.82673 8.10464 8.87667 8.1475 8.93528 8.11333C9.059 8.0661 9.13611 8.02016 9.30936 7.98249C9.35485 7.98159 9.35222 7.85988 9.28029 7.85553C9.18645 7.86025 9.09986 7.86504 9.00601 7.93888C8.94827 7.95223 8.93839 7.91708 8.92557 7.88557C8.91091 7.80739 8.95858 7.75229 8.94883 7.69368C8.95143 7.69625 8.91971 7.66775 8.87906 7.66557ZM12.8538 7.81385C12.8307 7.81457 12.8065 7.81776 12.7714 7.82064C12.7334 7.8287 12.7201 7.84534 12.7132 7.89138C12.7159 7.96122 12.7587 7.95776 12.8024 7.98539C12.8277 8.01762 12.8442 8.0468 12.8005 8.09976C12.759 8.13773 12.7295 8.15869 12.688 8.19667C12.6685 8.23006 12.6563 8.28134 12.7161 8.29747C12.8267 8.32854 13.0825 8.16234 13.0825 8.15887C13.1239 8.1278 13.1102 8.06874 13.1067 8.06874C13.0825 8.04111 13.028 8.05771 12.9914 8.05324C12.9739 8.05324 12.9166 8.04476 12.9439 7.99412C12.9666 7.96261 12.975 7.94378 12.9904 7.90495C13.0077 7.86697 12.9925 7.84136 12.9303 7.82063C12.8986 7.81488 12.8768 7.81313 12.8538 7.81385ZM11.1933 11.1757C11.193 11.1758 11.1926 11.1765 11.1923 11.1767C11.0085 11.2239 11.0142 11.4147 11.1322 11.4985C9.19098 11.4985 6.21194 11.4655 5.57306 11.4655C5.21563 11.4655 4.08482 11.4229 4.06308 11.4229C4.30559 11.7776 4.65689 11.8498 5.11657 11.857C5.97881 11.857 9.97391 11.8464 11.1109 11.8464C11.03 11.9899 11.1182 12.2208 11.1816 12.2631C11.183 12.264 11.1851 12.2654 11.1865 12.2661C11.1888 12.2672 11.1919 12.2684 11.1942 12.269C11.195 12.2691 11.1964 12.2689 11.1971 12.269C11.2724 12.2867 11.3055 12.2322 11.3309 12.1924C11.453 12.2032 12.1402 12.2131 12.2031 12.1914C12.2033 12.1913 12.2039 12.1905 12.2041 12.1905C12.2466 12.2531 12.2889 12.3122 12.3698 12.3019C12.5115 12.2715 12.6231 12.2561 12.6266 11.9685C12.6266 11.9685 12.6122 11.4784 12.2903 11.5091C12.2142 11.5206 12.0006 11.5421 12.0006 11.5421C11.7533 11.5127 11.572 11.5097 11.294 11.4995C11.3197 11.4669 11.365 11.335 11.3095 11.2872C11.2951 11.2752 11.2735 11.2685 11.2436 11.2707C11.2434 11.2707 11.2429 11.2707 11.2427 11.2707C11.2422 11.2707 11.2411 11.2708 11.2407 11.2707C11.2405 11.2707 11.24 11.2698 11.2398 11.2698C11.239 11.2695 11.2376 11.2693 11.2369 11.2688C11.2354 11.2678 11.2334 11.2656 11.232 11.2639C11.2317 11.2635 11.2304 11.2625 11.2301 11.262C11.216 11.2415 11.2083 11.1914 11.1991 11.1787C11.1989 11.1785 11.1982 11.1778 11.1981 11.1777C11.198 11.1776 11.1972 11.1768 11.1971 11.1767C11.1968 11.1765 11.1955 11.1759 11.1952 11.1758C11.1951 11.1757 11.1943 11.1758 11.1942 11.1758C11.1941 11.1758 11.1934 11.1757 11.1933 11.1758L11.1933 11.1757ZM11.3251 11.8764C11.3254 11.8763 11.3257 11.8766 11.3261 11.8764C11.6093 11.8903 11.8754 11.8791 12.1586 11.8929C12.2035 11.9311 12.181 12.0185 12.1518 12.0344C12.1505 12.0351 12.1483 12.036 12.147 12.0364C12.1459 12.0366 12.1442 12.0363 12.1431 12.0364C12.142 12.0363 12.1403 12.0366 12.1392 12.0364C12.0471 12.034 11.9939 12.0319 11.9018 12.0296C11.9016 12.025 11.9011 12.02 11.8998 12.016C11.878 11.9513 11.7199 11.9556 11.6827 12.0063C11.6822 12.007 11.6813 12.0085 11.6808 12.0092C11.6802 12.0102 11.6794 12.0121 11.6789 12.0131C11.6783 12.0144 11.6774 12.0166 11.6769 12.0179C11.6763 12.0199 11.6762 12.0227 11.6759 12.0247C11.6757 12.027 11.6748 12.03 11.675 12.0325C11.5507 12.0474 11.4388 12.0283 11.3144 12.0238C11.278 11.9783 11.2822 11.8962 11.3251 11.8764Z" fill="white"/>
</g>
</svg>
