<svg width="18" height="18" viewBox="0 0 18 18" fill="none" xmlns="http://www.w3.org/2000/svg">
<path d="M8.89084 17.7817C13.8011 17.7817 17.7817 13.8011 17.7817 8.89084C17.7817 3.98056 13.8011 0 8.89084 0C3.98056 0 0 3.98056 0 8.89084C0 13.8011 3.98056 17.7817 8.89084 17.7817Z" fill="#012169"/>
<path d="M15.7415 3.22461L8.89082 7.33514L2.04014 3.22461C1.47035 3.91361 1.00795 4.68476 0.668579 5.51193L6.29944 8.89044L0.668579 12.269C1.00769 13.0963 1.4699 13.8677 2.03955 14.5569L8.89082 10.4457L15.7421 14.5563C16.3118 13.8671 16.774 13.0957 17.1131 12.2684L11.4822 8.88985L17.1131 5.51133C16.7736 4.68437 16.3112 3.91343 15.7415 3.22461Z" fill="white"/>
<path d="M1.77115 14.1999L9.75452 9.40956L16.5068 13.4608C16.6599 13.2062 16.8002 12.9441 16.9271 12.6755L9.75512 8.37229L16.5068 4.32163C16.3531 4.06636 16.1877 3.81979 16.0107 3.58191L8.02674 8.37229L1.27444 4.32163C1.12231 4.57531 0.98243 4.8369 0.854797 5.10639L8.02674 9.40956L1.27444 13.4608C1.42756 13.7153 1.59334 13.962 1.77115 14.1999Z" fill="#C8102E"/>
<path d="M11.1135 0.291623C9.65725 -0.0972076 8.12443 -0.0972076 6.66813 0.291623V6.66813H0.291623C-0.0972076 8.12443 -0.0972076 9.65725 0.291623 11.1135H6.66813V17.4901C8.12443 17.8789 9.65725 17.8789 11.1135 17.4901V11.1135H17.4901C17.8789 9.65725 17.8789 8.12443 17.4901 6.66813H11.1135V0.291623Z" fill="white"/>
<path d="M10.2245 0.110839C9.78333 0.0405134 9.33753 0.00346255 8.89084 0C8.44414 0.00346255 7.99834 0.0405134 7.55721 0.110839V7.55721H0.110839C0.0405134 7.99834 0.00346255 8.44414 0 8.89084C0.00346255 9.33753 0.0405134 9.78333 0.110839 10.2245H7.55721V17.6708C7.99834 17.7412 8.44414 17.7782 8.89084 17.7817C9.33753 17.7782 9.78333 17.7412 10.2245 17.6708V10.2245H17.6708C17.7412 9.78333 17.7782 9.33753 17.7817 8.89084C17.7782 8.44414 17.7412 7.99834 17.6708 7.55721H10.2245V0.110839Z" fill="#C8102E"/>
</svg>
